<svg width="19" height="22" viewBox="0 0 19 22" fill="none" xmlns="http://www.w3.org/2000/svg">
<path d="M13.485 11.0192C14.7052 11.7138 15.6384 12.6671 16.3466 13.8504C17.1027 15.1199 17.5573 16.4995 17.7631 17.951C17.897 18.8996 17.9401 19.8625 17.9975 20.8206C18.031 21.3619 17.72 21.6541 17.1745 21.6541C11.8723 21.6541 6.57019 21.6541 1.26806 21.6541C0.712958 21.6541 0.421054 21.3667 0.425839 20.8062C0.440195 18.8756 0.684247 16.9882 1.4164 15.1869C2.12463 13.448 3.2109 12.0252 4.85705 11.0671C4.88097 11.0527 4.9049 11.0288 4.92883 11.0096C2.4931 8.44189 3.03862 4.51846 5.44086 2.51603C7.72345 0.604614 11.0636 0.695634 13.2314 2.73639C15.447 4.82026 15.8106 8.48021 13.485 11.0192ZM16.5189 20.1834C16.428 18.2528 16.1265 16.3893 15.1551 14.6983C14.5043 13.5629 13.6046 12.6911 12.4131 12.121C12.2695 12.0491 12.1642 12.0539 12.0207 12.1306C10.14 13.127 8.25463 13.1126 6.37878 12.1162C6.25915 12.0539 6.16344 12.0396 6.04381 12.1018C5.11067 12.5474 4.33066 13.1797 3.71814 14.0132C2.82807 15.2205 2.35911 16.5953 2.12463 18.0612C2.01457 18.7558 1.95714 19.4648 1.87101 20.1834C6.77596 20.1834 11.6331 20.1834 16.5189 20.1834ZM13.6046 7.00473C13.6046 4.58074 11.6378 2.60226 9.21648 2.60226C6.7951 2.60226 4.81876 4.57116 4.81876 6.99515C4.81876 9.41915 6.78553 11.3976 9.2069 11.3976C11.6283 11.4024 13.6046 9.42873 13.6046 7.00473Z" fill="black" stroke="black" stroke-width="0.5" stroke-miterlimit="10"/>
</svg>
